<svg xmlns="http://www.w3.org/2000/svg" xmlns:xlink="http://www.w3.org/1999/xlink" width="400" zoomAndPan="magnify" viewBox="0 0 300 74.999997" height="100" preserveAspectRatio="xMidYMid meet" version="1.0"><defs><g/><clipPath id="id1"><path d="M 201.292969 19.433594 L 217.042969 19.433594 L 217.042969 41.933594 L 201.292969 41.933594 Z M 201.292969 19.433594 " clip-rule="nonzero"/></clipPath></defs><g fill="rgb(98.039246%, 44.709778%, 35.289001%)" fill-opacity="1"><g transform="translate(36.328128, 51.374995)"><g><path d="M 12.339844 0 L 12.339844 -6.167969 L 17.195312 -6.167969 C 27.40625 -6.167969 34.777344 -13.867188 34.777344 -24.292969 C 34.777344 -32.539062 27.734375 -40.671875 17.742188 -40.671875 L 3.875 -40.671875 L 3.875 0 Z M 12.339844 -13.867188 L 12.339844 -33.027344 L 17.46875 -33.027344 C 22.984375 -33.027344 26.09375 -28.167969 26.09375 -23.421875 C 26.09375 -18.179688 22.875 -13.867188 16.976562 -13.867188 Z M 12.339844 -13.867188 "/></g></g></g><g fill="rgb(98.039246%, 44.709778%, 35.289001%)" fill-opacity="1"><g transform="translate(72.736988, 51.374995)"><g><path d="M 23.257812 0.710938 C 34.882812 0.710938 44.273438 -8.734375 44.273438 -20.363281 C 44.273438 -31.992188 34.882812 -41.382812 23.203125 -41.382812 C 11.574219 -41.382812 2.183594 -31.992188 2.183594 -20.363281 C 2.183594 -8.734375 11.574219 0.710938 23.257812 0.710938 Z M 23.203125 -33.300781 C 30.082031 -33.300781 35.59375 -27.515625 35.59375 -20.363281 C 35.59375 -13.101562 30.136719 -7.425781 23.257812 -7.425781 C 16.269531 -7.425781 10.863281 -13.101562 10.863281 -20.363281 C 10.863281 -27.515625 16.269531 -33.300781 23.203125 -33.300781 Z M 23.203125 -33.300781 "/></g></g></g><g fill="rgb(98.039246%, 44.709778%, 35.289001%)" fill-opacity="1"><g transform="translate(119.189663, 51.374995)"><g><path d="M 13.648438 -18.015625 C 17.578125 -17.578125 19.761719 -15.558594 19.761719 -12.285156 C 19.761719 -9.664062 17.578125 -7.425781 14.792969 -7.425781 C 12.390625 -7.425781 10.480469 -8.023438 8.625 -10.371094 L 1.636719 -5.242188 C 5.515625 -0.984375 10.152344 0.710938 14.792969 0.710938 C 21.945312 0.710938 28.550781 -4.96875 28.550781 -12.882812 C 28.550781 -20.746094 22.820312 -25.441406 15.886719 -25.875 C 11.574219 -26.148438 10.207031 -27.84375 10.207031 -29.699219 C 10.207031 -31.9375 11.738281 -33.300781 13.976562 -33.300781 C 15.394531 -33.300781 17.195312 -32.429688 18.289062 -31.28125 L 24.949219 -36.140625 C 21.835938 -39.851562 18.015625 -41.382812 13.976562 -41.382812 C 8.351562 -41.382812 2.019531 -36.523438 2.019531 -29.644531 C 2.019531 -23.257812 6.605469 -18.835938 13.648438 -18.015625 Z M 13.648438 -18.015625 "/></g></g></g><g fill="rgb(98.039246%, 44.709778%, 35.289001%)" fill-opacity="1"><g transform="translate(149.539472, 51.374995)"><g><path d="M 12.339844 0 L 12.339844 -6.167969 L 17.195312 -6.167969 C 27.40625 -6.167969 34.777344 -13.867188 34.777344 -24.292969 C 34.777344 -32.539062 27.734375 -40.671875 17.742188 -40.671875 L 3.875 -40.671875 L 3.875 0 Z M 12.339844 -13.867188 L 12.339844 -33.027344 L 17.46875 -33.027344 C 22.984375 -33.027344 26.09375 -28.167969 26.09375 -23.421875 C 26.09375 -18.179688 22.875 -13.867188 16.976562 -13.867188 Z M 12.339844 -13.867188 "/></g></g></g><g fill="rgb(98.039246%, 44.709778%, 35.289001%)" fill-opacity="1"><g transform="translate(185.948332, 51.374995)"><g><path d="M 23.257812 0.710938 C 34.882812 0.710938 44.273438 -8.734375 44.273438 -20.363281 C 44.273438 -31.992188 34.882812 -41.382812 23.203125 -41.382812 C 11.574219 -41.382812 2.183594 -31.992188 2.183594 -20.363281 C 2.183594 -8.734375 11.574219 0.710938 23.257812 0.710938 Z M 23.203125 -33.300781 C 30.082031 -33.300781 35.59375 -27.515625 35.59375 -20.363281 C 35.59375 -13.101562 30.136719 -7.425781 23.257812 -7.425781 C 16.269531 -7.425781 10.863281 -13.101562 10.863281 -20.363281 C 10.863281 -27.515625 16.269531 -33.300781 23.203125 -33.300781 Z M 23.203125 -33.300781 "/></g></g></g><g fill="rgb(98.039246%, 44.709778%, 35.289001%)" fill-opacity="1"><g transform="translate(232.401018, 51.374995)"><g><path d="M 19.542969 0 L 19.542969 -33.027344 L 30.246094 -33.027344 L 30.246094 -40.671875 L 1.039062 -40.671875 L 1.039062 -33.027344 L 11.082031 -33.027344 L 11.082031 0 Z M 19.542969 0 "/></g></g></g><g clip-path="url(#id1)"><path fill="rgb(98.039246%, 44.709778%, 35.289001%)" d="M 209.167969 19.441406 C 204.820312 19.441406 201.292969 22.96875 201.292969 27.3125 C 201.292969 33.214844 209.167969 41.929688 209.167969 41.929688 C 209.167969 41.929688 217.042969 33.214844 217.042969 27.3125 C 217.042969 22.96875 213.515625 19.441406 209.167969 19.441406 Z M 209.167969 30.121094 C 207.617188 30.121094 206.355469 28.863281 206.355469 27.3125 C 206.355469 25.761719 207.617188 24.5 209.167969 24.5 C 210.722656 24.5 211.980469 25.761719 211.980469 27.3125 C 211.980469 28.863281 210.722656 30.121094 209.167969 30.121094 Z M 209.167969 30.121094 " fill-opacity="1" fill-rule="nonzero"/></g></svg>